<svg width="210" height="60" viewBox="0 0 210 33" fill="none" xmlns="http://www.w3.org/2000/svg">
<g clip-path="url(#clip0_196_4958)">
<text x="55" y="40" fill="black" stroke="black" font-size="37"> Cook<tspan fill="orange" stroke="orange">Ease</tspan>
  </text>
  <path transform="translate(-4.8, -4.8), scale(1.7999999999999998)" d="M16,26.802282107373077C17.82462601048609,26.70715956015671,19.479111301602106,27.962134323643525,21.30564974491303,27.91668443653019C23.502979288189046,27.86200812787738,26.157326616865454,28.10218466242061,27.674519098111887,26.511784211172312C29.17789286410882,24.935869259450364,28.385618619657617,22.286562017905098,28.728445023842212,20.13572249066406C29.026955870425372,18.262911877758278,29.928814683296398,16.436572150090022,29.577472576060412,14.572950128052478C29.230765783800862,12.733915181948198,27.5544533533051,11.480333754100547,26.77584604535556,9.778562384968005C25.913998729510197,7.894856604538289,26.418507489854868,5.184264682730957,24.731730989127136,3.981803332147539C23.03973760012145,2.7756229906237984,20.620648443279322,4.238655167212664,18.566360579874257,3.926222744145008C16.64715230882757,3.6343342989196628,14.92683686639739,1.646874947578651,13.068409862472786,2.2079527703393627C11.161656653222812,2.783620761026489,10.677268139405086,5.326536328024044,9.267579635649298,6.733618329495741C8.077210191030215,7.921786790941558,6.556681818859067,8.663405043404733,5.388636416929366,9.87352637884517C4.0127668176220475,11.298958262019415,2.2391976606996074,12.579977197974072,1.767294701109826,14.504082393798395C1.2959825353518615,16.425778726829304,2.172788101735798,18.41308868990011,2.837127407537853,20.276876564295247C3.491178647420996,22.111801518277304,4.304895578483251,23.909287234138173,5.629023481170538,25.33806920087197C6.946138752263742,26.759284284119182,8.523536572417303,28.212140721307698,10.442199349108538,28.48302464393099C12.379824135982828,28.756585693437444,14.045813069304609,26.904159005716295,16,26.802282107373077" fill="#d6660b" strokewidth="0"/>

<g id="SVGRepo_iconCarrier"> <defs> <style>.b{fill:none;stroke:#decec0;stroke-linecap:round;stroke-linejoin:round;}</style> </defs> <g> <path class="b" d="M24,24.4682H5.5c0,9.2155,11.597,17.1393,11.597,17.1393h6.903"/> <path class="b" d="M10.8843,26.5736c0,6.7924,7.6278,11.8041,7.6278,11.8041"/> <path class="b" d="M24,24.4682h18.5c0,9.2155-11.597,17.1393-11.597,17.1393h-6.903"/> <path class="b" d="M14.0942,24.4682c-1.3461-5.0392,7.6541-8.5034,15.7305-9.5733l.7892-1.4542,3.184,3.87-1.7473,.2847c-.8542,2.8087-5.1347,6.8728-5.1347,6.8728"/> <path class="b" d="M15.5093,24.4682c.2883-2.5946,3.2968-5.5138,14.7724-9.0189"/> <path class="b" d="M30.5784,15.8092c-4.3403,2.1744-9.4,4.6725-12.9464,8.659"/> <path class="b" d="M31.4253,16.8367c-4.5094,6.1259-7.4253,7.6315-7.4253,7.6315"/> <path class="b" d="M21.5047,24.4682c2.7196-1.5897,9.4897-8.1542,9.4897-8.1542"/> <path class="b" d="M33.0768,16.4532l8.1513-6.6057c.5628-.4561,.6493-1.282,.1932-1.8447h0c-.4561-.5628-1.282-.6493-1.8447-.1932l-8.1513,6.6057"/> </g> </g>

</g>
<defs>
<clipPath id="clip0_196_4958">
<rect width="210" height="50" fill="white" transform="translate(0 0.5)"/>
</clipPath>
</defs>
</svg>



